<?xml version="1.0" encoding="UTF-8"?>
<svg id="_图层_1" data-name="图层 1" xmlns="http://www.w3.org/2000/svg" xmlns:xlink="http://www.w3.org/1999/xlink" viewBox="0 0 512 512">
  <defs>
    <style>
      .cls-1 {
        stroke: #000;
        stroke-miterlimit: 10;
      }

      .cls-2 {
        fill: #e6e6e6;
      }

      .cls-3 {
        fill: url(#_未命名的渐变_43);
      }

      .cls-4 {
        fill: url(#_未命名的渐变_32);
      }

      .cls-5 {
        fill: #ccc;
      }

      .cls-6 {
        fill: #666;
      }
    </style>
    <linearGradient id="_未命名的渐变_43" data-name="未命名的渐变 43" x1="205" y1="239" x2="205" y2="408" gradientUnits="userSpaceOnUse">
      <stop offset=".45" stop-color="#e6e6e6"/>
      <stop offset="1" stop-color="#474747"/>
    </linearGradient>
    <linearGradient id="_未命名的渐变_32" data-name="未命名的渐变 32" x1="347" y1="418.62" x2="347" y2="483" gradientUnits="userSpaceOnUse">
      <stop offset=".74" stop-color="#e6e6e6"/>
      <stop offset="1" stop-color="#474747"/>
    </linearGradient>
  </defs>
  <rect class="cls-6" width="512" height="512" rx="55.09" ry="55.09"/>
  <g>
    <path d="m53,431.48c-9.38,0-15.59-2.95-17.97-8.53-4.28-10.07,3.91-27.25,21.92-45.96l10.64-11.05c29.28-30.43,75.29-55.19,102.56-55.19h149.51c9.38,0,15.59,2.95,17.97,8.53,4.28,10.07-3.91,27.25-21.92,45.96l-10.64,11.05c-29.28,30.43-75.29,55.19-102.56,55.19H53Z"/>
    <path d="m319.66,311.24c9.16,0,15.22,2.84,17.51,8.23,1.98,4.66,1.16,11.17-2.39,18.82-3.74,8.07-10.46,17.27-19.43,26.6l-10.64,11.05c-29.2,30.35-75.05,55.03-102.2,55.03H53c-9.16,0-15.22-2.84-17.51-8.23-1.98-4.66-1.16-11.17,2.39-18.82,3.74-8.07,10.46-17.27,19.43-26.6l10.64-11.05c29.2-30.35,75.05-55.03,102.2-55.03h149.51m0-1h-149.51c-27.43,0-73.5,24.78-102.92,55.34l-10.64,11.05c-29.41,30.56-31.02,55.34-3.59,55.34h149.51c27.43,0,73.5-24.78,102.92-55.34l10.64-11.05c29.41-30.56,31.02-55.34,3.59-55.34h0Z"/>
  </g>
  <g>
    <path d="m25.58,386.82c-8.78,0-14.6-2.76-16.82-7.98-4.01-9.43,3.67-25.53,20.55-43.07l67.87-70.53c27.46-28.53,70.59-51.74,96.15-51.74h291.33c8.78,0,14.6,2.76,16.82,7.98,4.01,9.43-3.67,25.53-20.55,43.07l-67.87,70.53c-27.46,28.53-70.59,51.74-96.15,51.74H25.58Z"/>
    <path d="m484.66,214c8.57,0,14.22,2.65,16.36,7.68,3.93,9.24-3.71,25.13-20.45,42.52l-67.87,70.53c-27.37,28.45-70.34,51.59-95.79,51.59H25.58c-8.57,0-14.22-2.65-16.36-7.68-3.93-9.24,3.71-25.13,20.45-42.52l67.87-70.53c27.37-28.45,70.34-51.59,95.79-51.59h291.33m0-1H193.33c-25.72,0-68.93,23.23-96.51,51.89l-67.87,70.53c-27.58,28.66-29.09,51.89-3.37,51.89h291.33c25.72,0,68.93-23.23,96.51-51.89l67.87-70.53c27.58-28.66,29.09-51.89,3.37-51.89h0Z"/>
  </g>
  <g>
    <path d="m138.36,485.5c-8.73,0-14.5-2.74-16.71-7.93-3.99-9.37,3.65-25.36,20.42-42.79l15.82-16.44c27.28-28.35,70.14-51.41,95.54-51.41h164.44c8.73,0,14.5,2.74,16.71,7.93,3.99,9.37-3.65,25.36-20.42,42.79l-15.82,16.44c-27.28,28.35-70.14,51.41-95.54,51.41h-164.44Z"/>
    <path d="m417.87,367.43c8.51,0,14.13,2.64,16.25,7.62,3.9,9.18-3.69,24.97-20.32,42.25l-15.82,16.44c-27.2,28.27-69.9,51.26-95.18,51.26h-164.44c-8.51,0-14.13-2.64-16.25-7.62-3.9-9.18,3.69-24.97,20.32-42.25l15.82-16.44c27.2-28.27,69.9-51.26,95.18-51.26h164.44m0-1h-164.44c-25.56,0-68.49,23.09-95.9,51.57l-15.82,16.44c-27.41,28.48-28.91,51.57-3.35,51.57h164.44c25.56,0,68.49-23.09,95.9-51.57l15.82-16.44c27.41-28.48,28.91-51.57,3.35-51.57h0Z"/>
  </g>
  <path class="cls-1" d="m318.88,371.11H53.27c-17.47,0-16.45-15.79,2.29-35.26l68.35-71.03c18.74-19.47,48.1-35.26,65.57-35.26h265.6c17.47,0,16.45,15.79-2.29,35.26l-68.35,71.03c-18.74,19.47-48.1,35.26-65.57,35.26Z"/>
  <g>
    <path d="m150.84,472.53c-8.73,0-14.5-2.74-16.71-7.93-3.99-9.37,3.65-25.36,20.42-42.79l15.82-16.44c27.28-28.35,70.14-51.41,95.54-51.41h164.44c8.73,0,14.5,2.74,16.71,7.93,3.99,9.37-3.65,25.36-20.42,42.79l-15.82,16.44c-27.28,28.35-70.14,51.41-95.54,51.41h-164.44Z"/>
    <path d="m430.34,354.46c8.51,0,14.13,2.64,16.25,7.62,3.9,9.18-3.69,24.97-20.32,42.25l-15.82,16.44c-27.2,28.27-69.9,51.26-95.18,51.26h-164.44c-8.51,0-14.13-2.64-16.25-7.62-3.9-9.18,3.69-24.97,20.32-42.25l15.82-16.44c27.2-28.27,69.9-51.26,95.18-51.26h164.44m0-1h-164.44c-25.56,0-68.49,23.09-95.9,51.57l-15.82,16.44c-27.41,28.48-28.91,51.57-3.35,51.57h164.44c25.56,0,68.49-23.09,95.9-51.57l15.82-16.44c27.41-28.48,28.91-51.57,3.35-51.57h0Z"/>
  </g>
  <g>
    <path d="m183.21,456.69c-7.11,0-11.81-2.23-13.6-6.44-3.25-7.64,3-20.7,16.71-34.95l2.59-2.69c22.33-23.2,57.4-42.08,78.18-42.08h130.2c7.11,0,11.81,2.23,13.6,6.44,3.25,7.64-3,20.7-16.71,34.95l-2.59,2.69c-22.33,23.2-57.4,42.08-78.18,42.08h-130.2Z"/>
    <path d="m397.28,371.03c6.89,0,11.44,2.12,13.14,6.13,3.12,7.34-3.24,20.52-16.61,34.41l-2.59,2.69c-22.25,23.12-57.16,41.93-77.82,41.93h-130.2c-6.89,0-11.44-2.12-13.14-6.13-3.12-7.34,3.24-20.52,16.61-34.41l2.59-2.69c22.25-23.12,57.16-41.93,77.82-41.93h130.2m0-1h-130.2c-20.93,0-56.1,18.91-78.54,42.23l-2.59,2.69c-22.45,23.33-23.67,42.23-2.74,42.23h130.2c20.93,0,56.1-18.91,78.54-42.23l2.59-2.69c22.45-23.33,23.67-42.23,2.74-42.23h0Z"/>
  </g>
  <ellipse class="cls-1" cx="328.78" cy="223.08" rx="3.29" ry="1.4" transform="translate(-60.28 142.51) rotate(-22.46)"/>
  <rect class="cls-3" x="83" y="239" width="244" height="169" rx="34.4" ry="34.4"/>
  <rect class="cls-5" x="17" y="104" width="377" height="242" rx="32.26" ry="32.26"/>
  <g>
    <rect class="cls-2" x="221.5" y="317.5" width="251" height="165" rx="31.55" ry="31.55"/>
    <path class="cls-2" d="m440.95,318c17.12,0,31.05,13.93,31.05,31.05v101.89c0,17.12-13.93,31.05-31.05,31.05h-187.89c-17.12,0-31.05-13.93-31.05-31.05v-101.89c0-17.12,13.93-31.05,31.05-31.05h187.89m0-1h-187.89c-17.7,0-32.05,14.35-32.05,32.05v101.89c0,17.7,14.35,32.05,32.05,32.05h187.89c17.7,0,32.05-14.35,32.05-32.05v-101.89c0-17.7-14.35-32.05-32.05-32.05h0Z"/>
  </g>
  <rect class="cls-6" x="43.5" y="127" width="322.5" height="196.5" rx="21.92" ry="21.92"/>
  <rect class="cls-4" x="221" y="418.62" width="252" height="64.38" rx="32.19" ry="32.19"/>
  <g>
    <rect x="222.5" y="300.5" width="249" height="163" rx="30.55" ry="30.55"/>
    <path class="cls-2" d="m440.95,302c16.02,0,29.05,13.03,29.05,29.05v101.89c0,16.02-13.03,29.05-29.05,29.05h-187.89c-16.02,0-29.05-13.03-29.05-29.05v-101.89c0-16.02,13.03-29.05,29.05-29.05h187.89m0-3h-187.89c-17.7,0-32.05,14.35-32.05,32.05v101.89c0,17.7,14.35,32.05,32.05,32.05h187.89c17.7,0,32.05-14.35,32.05-32.05v-101.89c0-17.7-14.35-32.05-32.05-32.05h0Z"/>
  </g>
  <g>
    <rect class="cls-6" x="246.5" y="322.5" width="201" height="120" rx="25.75" ry="25.75"/>
    <path d="m421.75,323c13.92,0,25.25,11.33,25.25,25.25v68.5c0,13.92-11.33,25.25-25.25,25.25h-149.5c-13.92,0-25.25-11.33-25.25-25.25v-68.5c0-13.92,11.33-25.25,25.25-25.25h149.5m0-1h-149.5c-14.5,0-26.25,11.75-26.25,26.25v68.5c0,14.5,11.75,26.25,26.25,26.25h149.5c14.5,0,26.25-11.75,26.25-26.25v-68.5c0-14.5-11.75-26.25-26.25-26.25h0Z"/>
  </g>
  <circle class="cls-1" cx="205" cy="118" r="2.5"/>
</svg>